<?xml version="1.0" standalone="no"?>
<!DOCTYPE svg PUBLIC "-//W3C//DTD SVG 20010904//EN"
 "http://www.w3.org/TR/2001/REC-SVG-20010904/DTD/svg10.dtd">
<svg version="1.0" xmlns="http://www.w3.org/2000/svg"
 width="300.000000pt" height="300.000000pt" viewBox="0 0 300.000000 300.000000"
 preserveAspectRatio="xMidYMid meet">
<metadata>
Created by potrace 1.11, written by Peter Selinger 2001-2013
</metadata>
<g transform="translate(0.000000,300.000000) scale(0.100000,-0.100000)"
fill="#000000" stroke="none">
<path d="M1255 2979 c-49 -10 -106 -22 -125 -25 -19 -3 -38 -8 -43 -11 -4 -2
-18 -6 -31 -9 -13 -2 -41 -12 -62 -21 -22 -9 -41 -17 -44 -18 -21 -6 -59 -24
-155 -72 -162 -81 -300 -187 -425 -328 -61 -69 -130 -156 -130 -165 0 -5 -6
-15 -14 -22 -12 -13 -49 -75 -51 -88 -1 -3 -18 -38 -38 -77 -21 -40 -35 -73
-32 -73 3 0 -1 -13 -10 -30 -9 -16 -13 -30 -9 -30 3 0 -1 -11 -10 -25 -9 -14
-14 -25 -10 -25 4 0 1 -7 -6 -15 -7 -8 -10 -15 -7 -15 4 0 1 -17 -19 -95 -21
-84 -27 -141 -29 -285 -3 -172 7 -285 36 -408 17 -68 99 -282 122 -315 10 -15
20 -34 21 -42 1 -9 8 -21 14 -27 7 -7 12 -16 12 -21 0 -17 101 -160 149 -211
78 -84 166 -170 200 -196 18 -14 38 -30 45 -36 6 -6 59 -40 116 -76 168 -103
353 -171 554 -203 131 -21 389 -16 506 10 14 3 46 10 72 15 54 11 222 72 288
105 143 72 212 113 270 162 30 25 114 99 141 123 38 35 210 252 204 258 -3 3
0 11 7 19 6 7 25 42 43 76 17 34 37 73 45 87 8 14 15 30 17 35 1 6 21 63 43
129 54 153 78 316 74 486 -4 152 -10 222 -23 264 -6 17 -19 65 -31 106 -25 89
-58 176 -78 208 -8 12 -11 22 -7 22 5 0 2 8 -6 18 -8 9 -32 51 -53 92 -42 84
-46 91 -97 171 -33 51 -57 82 -114 144 -29 32 -127 111 -231 187 -79 57 -146
93 -294 161 -58 26 -222 75 -275 82 -27 4 -61 9 -75 12 -14 3 -99 7 -190 9
-134 2 -182 -1 -255 -17z"/>
</g>
</svg>
