<?xml version="1.0" standalone="no"?>
<!DOCTYPE svg PUBLIC "-//W3C//DTD SVG 20010904//EN"
 "http://www.w3.org/TR/2001/REC-SVG-20010904/DTD/svg10.dtd">
<svg version="1.0" xmlns="http://www.w3.org/2000/svg"
 width="16.000000pt" height="16.000000pt" viewBox="0 0 16.000000 16.000000"
 preserveAspectRatio="xMidYMid meet">
<metadata>
Created by potrace 1.11, written by Peter Selinger 2001-2013
</metadata>
<g transform="translate(0.000000,16.000000) scale(0.001250,-0.001250)"
fill="#000000" stroke="none">
<path d="M6609 12484 c-17 -38 -44 -120 -60 -182 -114 -452 -17 -1007 282
-1604 125 -249 211 -388 519 -837 259 -378 420 -759 475 -1126 23 -159 21
-417 -4 -565 -54 -312 -174 -575 -377 -830 -22 -27 -9 -16 33 27 133 136 272
377 342 593 135 413 111 862 -71 1324 -93 237 -206 441 -390 704 -303 433
-445 678 -587 1009 -225 527 -285 1028 -170 1418 12 39 28 83 36 98 8 16 12
31 9 35 -3 3 -20 -26 -37 -64z"/>
<path d="M5686 11099 c-79 -173 -94 -410 -41 -669 64 -317 194 -582 521 -1064
366 -539 428 -1047 182 -1493 -21 -40 -56 -94 -77 -120 -55 -71 -59 -83 -12
-38 90 86 197 270 245 425 124 392 29 822 -282 1284 -53 77 -121 179 -153 226
-85 126 -190 315 -244 437 -132 300 -187 571 -165 801 9 98 31 197 51 234 6
11 8 22 5 25 -3 3 -17 -18 -30 -48z"/>
<path d="M5900 6989 c-512 -27 -670 -40 -1071 -84 -257 -28 -356 -42 -624 -85
-912 -148 -1570 -384 -1807 -649 -58 -64 -100 -147 -100 -198 -3 -182 12 -573
26 -683 101 -806 388 -1518 872 -2160 593 -787 1463 -1363 2424 -1605 701
-176 1447 -176 2155 1 964 242 1830 816 2442 1620 57 75 66 83 125 103 406
146 856 372 1203 604 407 272 737 582 972 913 196 275 283 500 283 728 0 131
-17 213 -65 311 -120 248 -386 406 -710 422 -317 15 -592 -85 -845 -308 l-77
-68 1 87 c1 79 -2 92 -29 142 -185 336 -976 620 -2195 789 -70 10 -125 17
-332 41 -288 33 -599 56 -1063 80 -220 12 -1371 11 -1585 -1z m1281 -79 c649
-19 1182 -60 1694 -131 273 -38 382 -56 655 -110 797 -157 1352 -400 1470
-643 18 -38 20 -55 14 -108 -9 -86 -33 -138 -96 -204 -324 -344 -1434 -621
-2938 -734 -712 -54 -1834 -54 -2540 0 -1337 101 -2342 329 -2805 635 -141 93
-215 188 -236 302 -16 83 5 129 101 223 230 226 751 413 1585 569 46 9 76 14
248 41 105 17 337 48 442 60 55 6 118 13 140 16 22 3 87 9 145 15 753 68 1424
90 2121 69z m5038 -799 c151 -44 292 -133 369 -233 203 -263 163 -617 -116
-1023 -310 -453 -777 -847 -1407 -1188 -199 -108 -385 -192 -693 -314 -7 -3 9
28 36 68 195 295 384 699 497 1059 116 371 175 706 201 1145 l5 100 107 105
c155 152 317 242 527 291 114 26 367 21 474 -10z m-9664 -547 c305 -218 917
-411 1705 -538 228 -37 335 -51 640 -86 216 -24 554 -51 910 -72 287 -17 1522
-17 1795 0 327 20 491 32 665 48 1007 91 1829 263 2329 488 175 79 347 192
400 264 l20 27 1 -45 c0 -65 -28 -357 -46 -480 -193 -1307 -975 -2452 -2126
-3116 -516 -298 -1081 -481 -1701 -551 -187 -21 -684 -24 -857 -5 -633 69
-1159 232 -1685 522 -1033 570 -1800 1569 -2090 2720 -59 235 -107 534 -120
750 -3 52 -8 127 -11 165 l-6 70 64 -63 c35 -34 86 -78 113 -98z"/>
<path d="M6330 6524 c-248 -7 -732 -38 -905 -59 -123 -14 -231 -28 -321 -41
-645 -91 -1100 -247 -1205 -413 -51 -79 -35 -146 53 -226 202 -185 861 -349
1673 -415 72 -6 186 -15 255 -21 198 -17 1120 -23 1390 -10 1385 68 2301 327
2219 626 -17 62 -108 143 -221 198 -302 148 -766 245 -1533 322 -265 27 -1060
49 -1405 39z"/>
<path d="M3881 4532 c-1 -131 33 -331 83 -492 106 -333 279 -619 536 -884 392
-404 925 -673 1545 -781 270 -46 316 -50 675 -50 379 1 476 9 754 66 1006 205
1743 857 1965 1738 37 144 74 471 53 471 -5 0 -13 -11 -16 -24 -11 -42 -109
-121 -218 -174 -646 -313 -2360 -446 -3818 -296 -866 88 -1451 266 -1541 469
l-18 40 0 -83z"/>
<path d="M0 4580 c0 -5 12 -10 28 -10 21 0 24 2 12 10 -20 13 -40 13 -40 0z"/>
<path d="M2755 1239 c-188 -63 -294 -118 -367 -189 -90 -88 -91 -148 -4 -235
232 -233 1217 -437 2551 -529 625 -44 1018 -56 1770 -56 865 0 1482 26 2175
90 1403 131 2235 373 2185 638 -11 57 -101 139 -217 195 -86 42 -349 137 -379
137 -7 0 9 -22 35 -50 38 -41 46 -56 46 -87 0 -76 -61 -136 -205 -203 -302
-140 -917 -260 -1720 -335 -2313 -214 -5250 4 -5730 427 -78 69 -78 146 3 215
21 19 31 33 22 33 -8 -1 -82 -23 -165 -51z"/>
</g>
</svg>
